<svg xmlns="http://www.w3.org/2000/svg" viewBox="0 0 256 256"><path d="M232.605 94.789a21.503 21.503 0 0 0-1.109-3.283c-15.119-42.555-55.785-73.113-103.461-73.113-47.674 0-88.34 30.556-103.459 73.109a21.551 21.551 0 0 0-1.113 3.295 109.34 109.34 0 0 0-5.188 33.356c0 11.625 1.823 22.831 5.187 33.354a21.51 21.51 0 0 0 1.115 3.3c15.12 42.552 55.785 73.107 103.459 73.107 47.675 0 88.341-30.557 103.46-73.111a21.59 21.59 0 0 0 1.11-3.287 109.349 109.349 0 0 0 5.19-33.362c0-11.63-1.824-22.839-5.191-33.365zm-10.421.376c.271.77.532 1.544.784 2.322.162.727.246 1.451.246 2.172 0 8.147-10.467 16.775-28.337 23.205-7.657-2.521-16.115-4.571-25.141-6.114-.651-17.219-2.769-33.563-6.19-47.863 31.937 4.745 53.77 15.504 58.638 26.278zm-52.24 31.764c2.105.382 4.16.79 6.163 1.224a187.76 187.76 0 0 1-6.163 1.224c.002-.409.011-.814.011-1.224s-.009-.816-.011-1.224zm40.761-54.559c-3.061-1.575-6.409-3.066-10.048-4.456-11.46-4.38-25.114-7.591-39.977-9.502a141.84 141.84 0 0 0-1.826-5.564c-3.341-9.425-7.283-17.015-11.66-22.603 26.327 5.143 48.984 20.666 63.511 42.125zm-82.669 60.578c-11.4 0-22.097-.725-31.907-2.012a321.454 321.454 0 0 1 0-5.568c9.81-1.287 20.507-2.012 31.907-2.012 11.4 0 22.097.725 31.906 2.012a321.267 321.267 0 0 1 0 5.568c-9.81 1.288-20.507 2.012-31.906 2.012zm31.639 8.085c-.797 18.267-3.257 34.436-6.725 47.695-7.836.78-16.168 1.207-24.915 1.207s-17.079-.427-24.915-1.207c-3.468-13.259-5.928-29.429-6.725-47.695 10.102 1.254 20.742 1.915 31.64 1.915s21.539-.661 31.64-1.915zm-63.279-25.762c.797-18.266 3.257-34.436 6.725-47.695 7.836-.78 16.169-1.207 24.915-1.207 8.746 0 17.079.427 24.915 1.207 3.467 13.259 5.927 29.428 6.725 47.695-10.101-1.254-20.742-1.915-31.64-1.915-10.899 0-21.539.662-31.64 1.915zm31.64-86.251c7.633 0 15.705 10.411 21.823 28.252a264.258 264.258 0 0 0-21.823-.901 264.3 264.3 0 0 0-21.824.901c6.118-17.841 14.191-28.252 21.824-28.252zm-19.159 1.226c-4.377 5.588-8.319 13.178-11.66 22.603a142.973 142.973 0 0 0-1.826 5.564c-14.863 1.911-28.518 5.122-39.977 9.502-3.638 1.391-6.987 2.881-10.047 4.456 14.527-21.46 37.184-36.983 63.51-42.125zM33.103 97.491c.253-.781.515-1.558.786-2.33 4.871-10.773 26.703-21.529 58.637-26.272-3.421 14.3-5.539 30.643-6.19 47.863-9.026 1.542-17.484 3.593-25.141 6.114-17.87-6.431-28.338-15.058-28.338-23.205.001-.721.085-1.445.246-2.17zm53.023 31.885c-2.105-.382-4.16-.79-6.163-1.224a187.76 187.76 0 0 1 6.163-1.224c-.002.409-.011.814-.011 1.224.001.41.01.815.011 1.224zm-56.975 11.98a100.212 100.212 0 0 1-.875-13.203c0-4.476.301-8.882.875-13.203 4.215 4.86 10.489 9.32 18.643 13.203-8.155 3.882-14.428 8.342-18.643 13.203zm4.739 19.791a96.956 96.956 0 0 1-.788-2.335 9.97 9.97 0 0 1-.244-2.166c0-8.147 10.467-16.776 28.338-23.206 7.657 2.521 16.114 4.571 25.141 6.114.651 17.22 2.769 33.563 6.19 47.864-31.933-4.743-53.764-15.499-58.637-26.271zm11.477 22.789c3.061 1.575 6.408 3.065 10.047 4.456 11.459 4.38 25.114 7.591 39.977 9.502a141.84 141.84 0 0 0 1.826 5.564c3.341 9.424 7.283 17.015 11.66 22.603-26.326-5.144-48.983-20.666-63.51-42.125zm82.669 43.35c-7.633 0-15.706-10.411-21.823-28.252 7.099.589 14.4.901 21.823.901 7.424 0 14.725-.312 21.823-.901-6.118 17.841-14.191 28.252-21.823 28.252zm19.158-1.226c4.377-5.588 8.319-13.178 11.66-22.603.637-1.798 1.24-3.665 1.826-5.564 14.863-1.911 28.517-5.122 39.977-9.502 3.638-1.391 6.986-2.881 10.047-4.456-14.527 21.46-37.184 36.983-63.51 42.125zm75.774-67.243c-.253.78-.514 1.555-.785 2.327-4.87 10.773-26.702 21.531-58.638 26.274 3.421-14.3 5.539-30.644 6.19-47.864 9.026-1.542 17.484-3.592 25.141-6.114 17.87 6.431 28.338 15.059 28.338 23.206a10.074 10.074 0 0 1-.246 2.171zm3.953-17.461c-4.215-4.861-10.489-9.321-18.642-13.204 8.154-3.883 14.427-8.343 18.643-13.203.574 4.321.875 8.727.875 13.203a100.41 100.41 0 0 1-.876 13.204z" fill="#041e42"/></svg>